{"asset":{"version":"2.0","generator":"dungeon_debt gen_unit_models.cjs"},"scene":0,"scenes":[{"nodes":[7]}],"nodes":[{"name":"body","mesh":0,"translation":[0,0.62,0],"scale":[0.36,0.42,0.36]},{"name":"eyeL","mesh":2,"translation":[-0.1,0.7,0.18],"scale":[0.08,0.1,0.05]},{"name":"eyeR","mesh":2,"translation":[0.1,0.7,0.18],"scale":[0.08,0.1,0.05]},{"name":"earL","mesh":0,"translation":[-0.13,0.86,0],"scale":[0.08,0.18,0.06],"rotation":[0,0,0.19866933079506122,0.9800665778412416]},{"name":"earR","mesh":0,"translation":[0.13,0.86,0],"scale":[0.08,0.18,0.06],"rotation":[0,0,-0.19866933079506122,0.9800665778412416]},{"name":"wingL","mesh":1,"translation":[-0.42,0.64,0],"scale":[0.52,0.06,0.36]},{"name":"wingR","mesh":1,"translation":[0.42,0.64,0],"scale":[0.52,0.06,0.36]},{"name":"root","translation":[0,0.18,0],"children":[0,1,2,3,4,5,6]}],"meshes":[{"primitives":[{"attributes":{"POSITION":0,"NORMAL":1},"indices":2,"material":0}]},{"primitives":[{"attributes":{"POSITION":0,"NORMAL":1},"indices":2,"material":1}]},{"primitives":[{"attributes":{"POSITION":0,"NORMAL":1},"indices":2,"material":2}]}],"materials":[{"pbrMetallicRoughness":{"baseColorFactor":[0.31807999999999975,0.21,0.49,1],"metallicFactor":0,"roughnessFactor":0.85}},{"pbrMetallicRoughness":{"baseColorFactor":[0.4986999999999997,0.32500000000000007,0.775,1],"metallicFactor":0,"roughnessFactor":0.7}},{"pbrMetallicRoughness":{"baseColorFactor":[0.9,0.3,0.2,1],"metallicFactor":0.2,"roughnessFactor":0.3}}],"accessors":[{"bufferView":0,"byteOffset":0,"componentType":5126,"count":24,"type":"VEC3","min":[-0.5,-0.5,-0.5],"max":[0.5,0.5,0.5]},{"bufferView":1,"byteOffset":0,"componentType":5126,"count":24,"type":"VEC3"},{"bufferView":2,"byteOffset":0,"componentType":5123,"count":36,"type":"SCALAR"},{"bufferView":3,"byteOffset":0,"componentType":5126,"count":3,"type":"SCALAR","min":[0],"max":[0.8]},{"bufferView":4,"byteOffset":0,"componentType":5126,"count":3,"type":"VEC3"},{"bufferView":5,"byteOffset":0,"componentType":5126,"count":3,"type":"SCALAR","min":[0],"max":[0.8]},{"bufferView":6,"byteOffset":0,"componentType":5126,"count":3,"type":"VEC4"},{"bufferView":7,"byteOffset":0,"componentType":5126,"count":3,"type":"SCALAR","min":[0],"max":[0.8]},{"bufferView":8,"byteOffset":0,"componentType":5126,"count":3,"type":"VEC4"},{"bufferView":9,"byteOffset":0,"componentType":5126,"count":4,"type":"SCALAR","min":[0],"max":[0.45]},{"bufferView":10,"byteOffset":0,"componentType":5126,"count":4,"type":"VEC3"},{"bufferView":11,"byteOffset":0,"componentType":5126,"count":3,"type":"SCALAR","min":[0],"max":[0.3]},{"bufferView":12,"byteOffset":0,"componentType":5126,"count":3,"type":"VEC3"},{"bufferView":13,"byteOffset":0,"componentType":5126,"count":3,"type":"SCALAR","min":[0],"max":[0.3]},{"bufferView":14,"byteOffset":0,"componentType":5126,"count":3,"type":"VEC4"},{"bufferView":15,"byteOffset":0,"componentType":5126,"count":3,"type":"SCALAR","min":[0],"max":[0.6]},{"bufferView":16,"byteOffset":0,"componentType":5126,"count":3,"type":"VEC4"},{"bufferView":17,"byteOffset":0,"componentType":5126,"count":3,"type":"SCALAR","min":[0],"max":[0.6]},{"bufferView":18,"byteOffset":0,"componentType":5126,"count":3,"type":"VEC3"}],"bufferViews":[{"buffer":0,"byteOffset":0,"byteLength":288,"target":34962},{"buffer":0,"byteOffset":288,"byteLength":288,"target":34962},{"buffer":0,"byteOffset":576,"byteLength":72,"target":34963},{"buffer":0,"byteOffset":648,"byteLength":12},{"buffer":0,"byteOffset":660,"byteLength":36},{"buffer":0,"byteOffset":696,"byteLength":12},{"buffer":0,"byteOffset":708,"byteLength":48},{"buffer":0,"byteOffset":756,"byteLength":12},{"buffer":0,"byteOffset":768,"byteLength":48},{"buffer":0,"byteOffset":816,"byteLength":16},{"buffer":0,"byteOffset":832,"byteLength":48},{"buffer":0,"byteOffset":880,"byteLength":12},{"buffer":0,"byteOffset":892,"byteLength":36},{"buffer":0,"byteOffset":928,"byteLength":12},{"buffer":0,"byteOffset":940,"byteLength":48},{"buffer":0,"byteOffset":988,"byteLength":12},{"buffer":0,"byteOffset":1000,"byteLength":48},{"buffer":0,"byteOffset":1048,"byteLength":12},{"buffer":0,"byteOffset":1060,"byteLength":36}],"buffers":[{"byteLength":1096,"uri":"data:application/octet-stream;base64,"}],"animations":[{"name":"idle","samplers":[{"input":3,"output":4,"interpolation":"LINEAR"},{"input":5,"output":6,"interpolation":"LINEAR"},{"input":7,"output":8,"interpolation":"LINEAR"}],"channels":[{"sampler":0,"target":{"node":7,"path":"translation"}},{"sampler":1,"target":{"node":5,"path":"rotation"}},{"sampler":2,"target":{"node":6,"path":"rotation"}}]},{"name":"attack","samplers":[{"input":9,"output":10,"interpolation":"LINEAR"}],"channels":[{"sampler":0,"target":{"node":7,"path":"translation"}}]},{"name":"hit","samplers":[{"input":11,"output":12,"interpolation":"LINEAR"},{"input":13,"output":14,"interpolation":"LINEAR"}],"channels":[{"sampler":0,"target":{"node":7,"path":"translation"}},{"sampler":1,"target":{"node":7,"path":"rotation"}}]},{"name":"death","samplers":[{"input":15,"output":16,"interpolation":"LINEAR"},{"input":17,"output":18,"interpolation":"LINEAR"}],"channels":[{"sampler":0,"target":{"node":7,"path":"rotation"}},{"sampler":1,"target":{"node":7,"path":"translation"}}]}]}