{"asset":{"version":"2.0","generator":"dungeon_debt gen_unit_models.cjs"},"scene":0,"scenes":[{"nodes":[17]}],"nodes":[{"name":"legL","mesh":2,"translation":[-0.1425,0.18,0],"scale":[0.18,0.4,0.22]},{"name":"legR","mesh":2,"translation":[0.1425,0.18,0],"scale":[0.18,0.4,0.22]},{"name":"bootL","mesh":7,"translation":[-0.1425,0.03,0.03],"scale":[0.2,0.1,0.28]},{"name":"bootR","mesh":7,"translation":[0.1425,0.03,0.03],"scale":[0.2,0.1,0.28]},{"name":"torso","mesh":0,"translation":[0,0.56,0],"scale":[0.475,0.5,0.304]},{"name":"sash","mesh":3,"translation":[0,0.52,0.152],"scale":[0.12,0.34,0.04]},{"name":"head","mesh":1,"translation":[0,0.98,0],"scale":[0.32,0.32,0.32]},{"name":"eyeL","mesh":8,"translation":[-0.08,1,0.16],"scale":[0.06,0.08,0.05]},{"name":"eyeR","mesh":8,"translation":[0.08,1,0.16],"scale":[0.06,0.08,0.05]},{"name":"armL","mesh":2,"translation":[-0.285,0.64,0.18],"scale":[0.16,0.16,0.4]},{"name":"bowGrip","mesh":5,"translation":[-0.323,0.74,0.4],"scale":[0.06,0.36,0.06]},{"name":"bowTop","mesh":5,"translation":[-0.323,1.02,0.36],"scale":[0.05,0.28,0.05],"rotation":[0.24740395925452294,0,0,0.9689124217106447]},{"name":"bowBot","mesh":5,"translation":[-0.323,0.45999999999999996,0.36],"scale":[0.05,0.28,0.05],"rotation":[-0.24740395925452294,0,0,0.9689124217106447]},{"name":"bowString","mesh":6,"translation":[-0.323,0.74,0.34],"scale":[0.02,0.7,0.02]},{"name":"armR","mesh":2,"translation":[0,-0.2,0.02],"scale":[0.16,0.42,0.18]},{"name":"arrow","mesh":5,"translation":[0,-0.1,0.1],"scale":[0.03,0.03,0.5]},{"name":"weaponArm","translation":[0.34199999999999997,0.74,0.04],"children":[14,15]},{"name":"root","translation":[0,0,0],"children":[0,1,2,3,4,5,6,7,8,9,10,11,12,13,16]}],"meshes":[{"primitives":[{"attributes":{"POSITION":0,"NORMAL":1},"indices":2,"material":0}]},{"primitives":[{"attributes":{"POSITION":0,"NORMAL":1},"indices":2,"material":1}]},{"primitives":[{"attributes":{"POSITION":0,"NORMAL":1},"indices":2,"material":2}]},{"primitives":[{"attributes":{"POSITION":0,"NORMAL":1},"indices":2,"material":3}]},{"primitives":[{"attributes":{"POSITION":0,"NORMAL":1},"indices":2,"material":4}]},{"primitives":[{"attributes":{"POSITION":0,"NORMAL":1},"indices":2,"material":5}]},{"primitives":[{"attributes":{"POSITION":0,"NORMAL":1},"indices":2,"material":6}]},{"primitives":[{"attributes":{"POSITION":0,"NORMAL":1},"indices":2,"material":7}]},{"primitives":[{"attributes":{"POSITION":0,"NORMAL":1},"indices":2,"material":8}]},{"primitives":[{"attributes":{"POSITION":0,"NORMAL":1},"indices":2,"material":9}]}],"materials":[{"pbrMetallicRoughness":{"baseColorFactor":[0.24636400000000014,0.49300000000000005,0.187,1],"metallicFactor":0,"roughnessFactor":0.85}},{"pbrMetallicRoughness":{"baseColorFactor":[0.85,0.7,0.58,1],"metallicFactor":0,"roughnessFactor":0.85}},{"pbrMetallicRoughness":{"baseColorFactor":[0.14781840000000007,0.2958,0.1122,1],"metallicFactor":0,"roughnessFactor":0.85}},{"pbrMetallicRoughness":{"baseColorFactor":[0.5,0.34,0.18,1],"metallicFactor":0,"roughnessFactor":0.85}},{"pbrMetallicRoughness":{"baseColorFactor":[0.66,0.68,0.74,1],"metallicFactor":0.6,"roughnessFactor":0.35}},{"pbrMetallicRoughness":{"baseColorFactor":[0.45,0.3,0.16,1],"metallicFactor":0,"roughnessFactor":0.7}},{"pbrMetallicRoughness":{"baseColorFactor":[0.85,0.82,0.7,1],"metallicFactor":0,"roughnessFactor":0.5}},{"pbrMetallicRoughness":{"baseColorFactor":[0.11086380000000007,0.22185000000000002,0.08415,1],"metallicFactor":0,"roughnessFactor":0.85}},{"pbrMetallicRoughness":{"baseColorFactor":[0.08,0.08,0.1,1],"metallicFactor":0,"roughnessFactor":0.3}},{"pbrMetallicRoughness":{"baseColorFactor":[0.7,0.72,0.78,1],"metallicFactor":0.6,"roughnessFactor":0.35}}],"accessors":[{"bufferView":0,"byteOffset":0,"componentType":5126,"count":24,"type":"VEC3","min":[-0.5,-0.5,-0.5],"max":[0.5,0.5,0.5]},{"bufferView":1,"byteOffset":0,"componentType":5126,"count":24,"type":"VEC3"},{"bufferView":2,"byteOffset":0,"componentType":5123,"count":36,"type":"SCALAR"},{"bufferView":3,"byteOffset":0,"componentType":5126,"count":3,"type":"SCALAR","min":[0],"max":[1.4]},{"bufferView":4,"byteOffset":0,"componentType":5126,"count":3,"type":"VEC3"},{"bufferView":5,"byteOffset":0,"componentType":5126,"count":4,"type":"SCALAR","min":[0],"max":[0.45]},{"bufferView":6,"byteOffset":0,"componentType":5126,"count":4,"type":"VEC3"},{"bufferView":7,"byteOffset":0,"componentType":5126,"count":4,"type":"SCALAR","min":[0],"max":[0.45]},{"bufferView":8,"byteOffset":0,"componentType":5126,"count":4,"type":"VEC4"},{"bufferView":9,"byteOffset":0,"componentType":5126,"count":3,"type":"SCALAR","min":[0],"max":[0.3]},{"bufferView":10,"byteOffset":0,"componentType":5126,"count":3,"type":"VEC3"},{"bufferView":11,"byteOffset":0,"componentType":5126,"count":3,"type":"SCALAR","min":[0],"max":[0.3]},{"bufferView":12,"byteOffset":0,"componentType":5126,"count":3,"type":"VEC4"},{"bufferView":13,"byteOffset":0,"componentType":5126,"count":3,"type":"SCALAR","min":[0],"max":[0.6]},{"bufferView":14,"byteOffset":0,"componentType":5126,"count":3,"type":"VEC4"},{"bufferView":15,"byteOffset":0,"componentType":5126,"count":3,"type":"SCALAR","min":[0],"max":[0.6]},{"bufferView":16,"byteOffset":0,"componentType":5126,"count":3,"type":"VEC3"}],"bufferViews":[{"buffer":0,"byteOffset":0,"byteLength":288,"target":34962},{"buffer":0,"byteOffset":288,"byteLength":288,"target":34962},{"buffer":0,"byteOffset":576,"byteLength":72,"target":34963},{"buffer":0,"byteOffset":648,"byteLength":12},{"buffer":0,"byteOffset":660,"byteLength":36},{"buffer":0,"byteOffset":696,"byteLength":16},{"buffer":0,"byteOffset":712,"byteLength":48},{"buffer":0,"byteOffset":760,"byteLength":16},{"buffer":0,"byteOffset":776,"byteLength":64},{"buffer":0,"byteOffset":840,"byteLength":12},{"buffer":0,"byteOffset":852,"byteLength":36},{"buffer":0,"byteOffset":888,"byteLength":12},{"buffer":0,"byteOffset":900,"byteLength":48},{"buffer":0,"byteOffset":948,"byteLength":12},{"buffer":0,"byteOffset":960,"byteLength":48},{"buffer":0,"byteOffset":1008,"byteLength":12},{"buffer":0,"byteOffset":1020,"byteLength":36}],"buffers":[{"byteLength":1056,"uri":"data:application/octet-stream;base64,"}],"animations":[{"name":"idle","samplers":[{"input":3,"output":4,"interpolation":"LINEAR"}],"channels":[{"sampler":0,"target":{"node":17,"path":"translation"}}]},{"name":"attack","samplers":[{"input":5,"output":6,"interpolation":"LINEAR"},{"input":7,"output":8,"interpolation":"LINEAR"}],"channels":[{"sampler":0,"target":{"node":17,"path":"translation"}},{"sampler":1,"target":{"node":16,"path":"rotation"}}]},{"name":"hit","samplers":[{"input":9,"output":10,"interpolation":"LINEAR"},{"input":11,"output":12,"interpolation":"LINEAR"}],"channels":[{"sampler":0,"target":{"node":17,"path":"translation"}},{"sampler":1,"target":{"node":17,"path":"rotation"}}]},{"name":"death","samplers":[{"input":13,"output":14,"interpolation":"LINEAR"},{"input":15,"output":16,"interpolation":"LINEAR"}],"channels":[{"sampler":0,"target":{"node":17,"path":"rotation"}},{"sampler":1,"target":{"node":17,"path":"translation"}}]}]}