{"asset":{"version":"2.0","generator":"dungeon_debt gen_unit_models.cjs"},"scene":0,"scenes":[{"nodes":[13]}],"nodes":[{"name":"legL","mesh":2,"translation":[-0.22499999999999998,0.2016,0],"scale":[0.18,0.44800000000000006,0.22]},{"name":"legR","mesh":2,"translation":[0.22499999999999998,0.2016,0],"scale":[0.18,0.44800000000000006,0.22]},{"name":"bootL","mesh":7,"translation":[-0.22499999999999998,0.03,0.03],"scale":[0.2,0.1,0.28]},{"name":"bootR","mesh":7,"translation":[0.22499999999999998,0.03,0.03],"scale":[0.2,0.1,0.28]},{"name":"torso","mesh":0,"translation":[0,0.6272000000000001,0],"scale":[0.75,0.56,0.48]},{"name":"sash","mesh":3,"translation":[0,0.5872,0.24],"scale":[0.12,0.3808000000000001,0.04]},{"name":"head","mesh":1,"translation":[0,1.0976000000000001,0],"scale":[0.32,0.32,0.32]},{"name":"eyeL","mesh":8,"translation":[-0.08,1.1176000000000001,0.16],"scale":[0.06,0.08,0.05]},{"name":"eyeR","mesh":8,"translation":[0.08,1.1176000000000001,0.16],"scale":[0.06,0.08,0.05]},{"name":"armL","mesh":2,"translation":[-0.51,0.6688000000000001,0],"scale":[0.16,0.47040000000000004,0.18]},{"name":"armR","mesh":2,"translation":[0,-0.2,0.02],"scale":[0.16,0.47040000000000004,0.18]},{"name":"fist","mesh":0,"translation":[0,-0.34,0.06],"scale":[0.3,0.3,0.3]},{"name":"weaponArm","translation":[0.54,0.8288000000000001,0.04],"children":[10,11]},{"name":"root","translation":[0,0,0],"children":[0,1,2,3,4,5,6,7,8,9,12]}],"meshes":[{"primitives":[{"attributes":{"POSITION":0,"NORMAL":1},"indices":2,"material":0}]},{"primitives":[{"attributes":{"POSITION":0,"NORMAL":1},"indices":2,"material":1}]},{"primitives":[{"attributes":{"POSITION":0,"NORMAL":1},"indices":2,"material":2}]},{"primitives":[{"attributes":{"POSITION":0,"NORMAL":1},"indices":2,"material":3}]},{"primitives":[{"attributes":{"POSITION":0,"NORMAL":1},"indices":2,"material":4}]},{"primitives":[{"attributes":{"POSITION":0,"NORMAL":1},"indices":2,"material":5}]},{"primitives":[{"attributes":{"POSITION":0,"NORMAL":1},"indices":2,"material":6}]},{"primitives":[{"attributes":{"POSITION":0,"NORMAL":1},"indices":2,"material":7}]},{"primitives":[{"attributes":{"POSITION":0,"NORMAL":1},"indices":2,"material":8}]},{"primitives":[{"attributes":{"POSITION":0,"NORMAL":1},"indices":2,"material":9}]}],"materials":[{"pbrMetallicRoughness":{"baseColorFactor":[0.5,0.5,0.53,1],"metallicFactor":0,"roughnessFactor":0.85}},{"pbrMetallicRoughness":{"baseColorFactor":[0.55,0.55,0.58,1],"metallicFactor":0,"roughnessFactor":0.85}},{"pbrMetallicRoughness":{"baseColorFactor":[0.3,0.3,0.318,1],"metallicFactor":0,"roughnessFactor":0.85}},{"pbrMetallicRoughness":{"baseColorFactor":[0.4,0.4,0.43,1],"metallicFactor":0,"roughnessFactor":0.85}},{"pbrMetallicRoughness":{"baseColorFactor":[0.66,0.68,0.74,1],"metallicFactor":0.6,"roughnessFactor":0.35}},{"pbrMetallicRoughness":{"baseColorFactor":[0.45,0.3,0.16,1],"metallicFactor":0,"roughnessFactor":0.7}},{"pbrMetallicRoughness":{"baseColorFactor":[0.85,0.82,0.7,1],"metallicFactor":0,"roughnessFactor":0.5}},{"pbrMetallicRoughness":{"baseColorFactor":[0.225,0.225,0.23850000000000002,1],"metallicFactor":0,"roughnessFactor":0.85}},{"pbrMetallicRoughness":{"baseColorFactor":[0.08,0.08,0.1,1],"metallicFactor":0,"roughnessFactor":0.3}},{"pbrMetallicRoughness":{"baseColorFactor":[0.7,0.72,0.78,1],"metallicFactor":0.6,"roughnessFactor":0.35}}],"accessors":[{"bufferView":0,"byteOffset":0,"componentType":5126,"count":24,"type":"VEC3","min":[-0.5,-0.5,-0.5],"max":[0.5,0.5,0.5]},{"bufferView":1,"byteOffset":0,"componentType":5126,"count":24,"type":"VEC3"},{"bufferView":2,"byteOffset":0,"componentType":5123,"count":36,"type":"SCALAR"},{"bufferView":3,"byteOffset":0,"componentType":5126,"count":3,"type":"SCALAR","min":[0],"max":[1.4]},{"bufferView":4,"byteOffset":0,"componentType":5126,"count":3,"type":"VEC3"},{"bufferView":5,"byteOffset":0,"componentType":5126,"count":4,"type":"SCALAR","min":[0],"max":[0.45]},{"bufferView":6,"byteOffset":0,"componentType":5126,"count":4,"type":"VEC3"},{"bufferView":7,"byteOffset":0,"componentType":5126,"count":4,"type":"SCALAR","min":[0],"max":[0.45]},{"bufferView":8,"byteOffset":0,"componentType":5126,"count":4,"type":"VEC4"},{"bufferView":9,"byteOffset":0,"componentType":5126,"count":3,"type":"SCALAR","min":[0],"max":[0.3]},{"bufferView":10,"byteOffset":0,"componentType":5126,"count":3,"type":"VEC3"},{"bufferView":11,"byteOffset":0,"componentType":5126,"count":3,"type":"SCALAR","min":[0],"max":[0.3]},{"bufferView":12,"byteOffset":0,"componentType":5126,"count":3,"type":"VEC4"},{"bufferView":13,"byteOffset":0,"componentType":5126,"count":3,"type":"SCALAR","min":[0],"max":[0.6]},{"bufferView":14,"byteOffset":0,"componentType":5126,"count":3,"type":"VEC4"},{"bufferView":15,"byteOffset":0,"componentType":5126,"count":3,"type":"SCALAR","min":[0],"max":[0.6]},{"bufferView":16,"byteOffset":0,"componentType":5126,"count":3,"type":"VEC3"}],"bufferViews":[{"buffer":0,"byteOffset":0,"byteLength":288,"target":34962},{"buffer":0,"byteOffset":288,"byteLength":288,"target":34962},{"buffer":0,"byteOffset":576,"byteLength":72,"target":34963},{"buffer":0,"byteOffset":648,"byteLength":12},{"buffer":0,"byteOffset":660,"byteLength":36},{"buffer":0,"byteOffset":696,"byteLength":16},{"buffer":0,"byteOffset":712,"byteLength":48},{"buffer":0,"byteOffset":760,"byteLength":16},{"buffer":0,"byteOffset":776,"byteLength":64},{"buffer":0,"byteOffset":840,"byteLength":12},{"buffer":0,"byteOffset":852,"byteLength":36},{"buffer":0,"byteOffset":888,"byteLength":12},{"buffer":0,"byteOffset":900,"byteLength":48},{"buffer":0,"byteOffset":948,"byteLength":12},{"buffer":0,"byteOffset":960,"byteLength":48},{"buffer":0,"byteOffset":1008,"byteLength":12},{"buffer":0,"byteOffset":1020,"byteLength":36}],"buffers":[{"byteLength":1056,"uri":"data:application/octet-stream;base64,"}],"animations":[{"name":"idle","samplers":[{"input":3,"output":4,"interpolation":"LINEAR"}],"channels":[{"sampler":0,"target":{"node":13,"path":"translation"}}]},{"name":"attack","samplers":[{"input":5,"output":6,"interpolation":"LINEAR"},{"input":7,"output":8,"interpolation":"LINEAR"}],"channels":[{"sampler":0,"target":{"node":13,"path":"translation"}},{"sampler":1,"target":{"node":12,"path":"rotation"}}]},{"name":"hit","samplers":[{"input":9,"output":10,"interpolation":"LINEAR"},{"input":11,"output":12,"interpolation":"LINEAR"}],"channels":[{"sampler":0,"target":{"node":13,"path":"translation"}},{"sampler":1,"target":{"node":13,"path":"rotation"}}]},{"name":"death","samplers":[{"input":13,"output":14,"interpolation":"LINEAR"},{"input":15,"output":16,"interpolation":"LINEAR"}],"channels":[{"sampler":0,"target":{"node":13,"path":"rotation"}},{"sampler":1,"target":{"node":13,"path":"translation"}}]}]}