{"asset":{"version":"2.0","generator":"dungeon_debt gen_unit_models.cjs"},"scene":0,"scenes":[{"nodes":[4]}],"nodes":[{"name":"blob","mesh":0,"translation":[0,0.34,0],"scale":[0.95,0.62,0.85]},{"name":"dome","mesh":2,"translation":[0,0.64,0.08],"scale":[0.66,0.3,0.5]},{"name":"eyeL","mesh":1,"translation":[-0.17,0.42,0.4],"scale":[0.12,0.16,0.06]},{"name":"eyeR","mesh":1,"translation":[0.17,0.42,0.4],"scale":[0.12,0.16,0.06]},{"name":"root","translation":[0,0,0],"children":[0,1,2,3]}],"meshes":[{"primitives":[{"attributes":{"POSITION":0,"NORMAL":1},"indices":2,"material":0}]},{"primitives":[{"attributes":{"POSITION":0,"NORMAL":1},"indices":2,"material":1}]},{"primitives":[{"attributes":{"POSITION":0,"NORMAL":1},"indices":2,"material":2}]}],"materials":[{"pbrMetallicRoughness":{"baseColorFactor":[0.22499999999999998,0.775,0.2755120000000002,1],"metallicFactor":0,"roughnessFactor":0.5}},{"pbrMetallicRoughness":{"baseColorFactor":[0.05,0.05,0.07,1],"metallicFactor":0,"roughnessFactor":0.3}},{"pbrMetallicRoughness":{"baseColorFactor":[0.5199999999999999,0.88,0.5530624000000001,1],"metallicFactor":0,"roughnessFactor":0.4}}],"accessors":[{"bufferView":0,"byteOffset":0,"componentType":5126,"count":24,"type":"VEC3","min":[-0.5,-0.5,-0.5],"max":[0.5,0.5,0.5]},{"bufferView":1,"byteOffset":0,"componentType":5126,"count":24,"type":"VEC3"},{"bufferView":2,"byteOffset":0,"componentType":5123,"count":36,"type":"SCALAR"},{"bufferView":3,"byteOffset":0,"componentType":5126,"count":3,"type":"SCALAR","min":[0],"max":[1.4]},{"bufferView":4,"byteOffset":0,"componentType":5126,"count":3,"type":"VEC3"},{"bufferView":5,"byteOffset":0,"componentType":5126,"count":4,"type":"SCALAR","min":[0],"max":[0.45]},{"bufferView":6,"byteOffset":0,"componentType":5126,"count":4,"type":"VEC3"},{"bufferView":7,"byteOffset":0,"componentType":5126,"count":3,"type":"SCALAR","min":[0],"max":[0.3]},{"bufferView":8,"byteOffset":0,"componentType":5126,"count":3,"type":"VEC3"},{"bufferView":9,"byteOffset":0,"componentType":5126,"count":3,"type":"SCALAR","min":[0],"max":[0.3]},{"bufferView":10,"byteOffset":0,"componentType":5126,"count":3,"type":"VEC4"},{"bufferView":11,"byteOffset":0,"componentType":5126,"count":3,"type":"SCALAR","min":[0],"max":[0.6]},{"bufferView":12,"byteOffset":0,"componentType":5126,"count":3,"type":"VEC4"},{"bufferView":13,"byteOffset":0,"componentType":5126,"count":3,"type":"SCALAR","min":[0],"max":[0.6]},{"bufferView":14,"byteOffset":0,"componentType":5126,"count":3,"type":"VEC3"}],"bufferViews":[{"buffer":0,"byteOffset":0,"byteLength":288,"target":34962},{"buffer":0,"byteOffset":288,"byteLength":288,"target":34962},{"buffer":0,"byteOffset":576,"byteLength":72,"target":34963},{"buffer":0,"byteOffset":648,"byteLength":12},{"buffer":0,"byteOffset":660,"byteLength":36},{"buffer":0,"byteOffset":696,"byteLength":16},{"buffer":0,"byteOffset":712,"byteLength":48},{"buffer":0,"byteOffset":760,"byteLength":12},{"buffer":0,"byteOffset":772,"byteLength":36},{"buffer":0,"byteOffset":808,"byteLength":12},{"buffer":0,"byteOffset":820,"byteLength":48},{"buffer":0,"byteOffset":868,"byteLength":12},{"buffer":0,"byteOffset":880,"byteLength":48},{"buffer":0,"byteOffset":928,"byteLength":12},{"buffer":0,"byteOffset":940,"byteLength":36}],"buffers":[{"byteLength":976,"uri":"data:application/octet-stream;base64,"}],"animations":[{"name":"idle","samplers":[{"input":3,"output":4,"interpolation":"LINEAR"}],"channels":[{"sampler":0,"target":{"node":4,"path":"translation"}}]},{"name":"attack","samplers":[{"input":5,"output":6,"interpolation":"LINEAR"}],"channels":[{"sampler":0,"target":{"node":4,"path":"translation"}}]},{"name":"hit","samplers":[{"input":7,"output":8,"interpolation":"LINEAR"},{"input":9,"output":10,"interpolation":"LINEAR"}],"channels":[{"sampler":0,"target":{"node":4,"path":"translation"}},{"sampler":1,"target":{"node":4,"path":"rotation"}}]},{"name":"death","samplers":[{"input":11,"output":12,"interpolation":"LINEAR"},{"input":13,"output":14,"interpolation":"LINEAR"}],"channels":[{"sampler":0,"target":{"node":4,"path":"rotation"}},{"sampler":1,"target":{"node":4,"path":"translation"}}]}]}